<?xml version="1.0" encoding="utf-8"?>
<!-- Generator: Blockfreight, Inc. 2018 for Creative Commons (CC0) 2018 © Counterparty Cash Association (CCA) Zug, CH -->
<svg version="1.1" id="Layer_1" xmlns="http://www.w3.org/2000/svg" xmlns:xlink="http://www.w3.org/1999/xlink" x="0px" y="0px"
	 viewBox="0 0 216 216" style="enable-background:new 0 0 216 216;" xml:space="preserve">
<style type="text/css">
	.st0{fill:#43B654;}
	.st1{fill:#FFFFFF;}
</style>
<g>
	<path class="st0" d="M165.9,55h-31.2c-1.3,0-2.5,0.5-3.4,1.4l-57,57.1c-0.9,0.9-2.1,1.4-3.4,1.4H60.5c-1.3,0-2.5-0.5-3.4-1.4
		l-7.4-7.4c-0.9-0.9-1.4-2.1-1.4-3.4V92.3c0-1.3,0.5-2.5,1.4-3.4l7.4-7.4c0.9-0.9,2.1-1.4,3.4-1.4h10.4c1.3,0,2.5,0.5,3.4,1.4
		l4.5,4.5c1.9,1.9,4.9,1.9,6.8,0l11-11c1.9-1.9,1.9-4.9,0-6.8L84.7,56.4c-0.9-0.9-2.1-1.4-3.4-1.4H50.1c-1.3,0-2.5,0.5-3.4,1.4
		L24.6,78.5c-0.9,0.9-1.4,2.1-1.4,3.4v31.2c0,1.3,0.5,2.5,1.4,3.4l22.1,22.1c0.9,0.9,2.1,1.4,3.4,1.4h31.2c1.3,0,2.5-0.5,3.4-1.4
		l57-57.1c0.9-0.9,2.1-1.4,3.4-1.4h10.4c1.3,0,2.5,0.5,3.4,1.4l7.4,7.4c0.9,0.9,1.4,2.1,1.4,3.4v10.4c0,1.3-0.5,2.5-1.4,3.4
		l-7.4,7.4c-0.9,0.9-2.1,1.4-3.4,1.4h-10.4c-1.3,0-2.5-0.5-3.4-1.4l-4.6-4.6c-1.9-1.9-4.9-1.9-6.8,0l-13.5,13.2
		c-0.9,0.9-1.4,2.1-1.4,3.4v30.7c0,2.7,2.2,4.8,4.8,4.8H136c2.7,0,4.8-2.2,4.8-4.8v-11.4c0-2.7,2.2-4.8,4.8-4.8h20.4
		c1.3,0,2.5-0.5,3.4-1.4l22.1-22.1c0.9-0.9,1.4-2.1,1.4-3.4V81.9c0-1.3-0.5-2.5-1.4-3.4l-22.1-22.1C168.4,55.5,167.2,55,165.9,55z"
		/>
	<path class="st1" d="M165.9,55c1.3,0,2.5,0.5,3.4,1.4l22.1,22.1c0.9,0.9,1.4,2.1,1.4,3.4v31.2c0,1.3-0.5,2.5-1.4,3.4l-22.1,22.1
		c-0.9,0.9-2.1,1.4-3.4,1.4h-20.4c-2.7,0-4.8,2.2-4.8,4.8v11.4c0,2.7-2.2,4.8-4.8,4.8h-15.8c-2.7,0-4.8-2.2-4.8-4.8v-30.7
		c0-1.3,0.5-2.5,1.4-3.4l13.5-13.2c0.9-0.9,2.1-1.4,3.4-1.4c1.2,0,2.5,0.5,3.4,1.4l4.6,4.6c0.9,0.9,2.1,1.4,3.4,1.4h10.4
		c1.3,0,2.5-0.5,3.4-1.4l7.4-7.4c0.9-0.9,1.4-2.1,1.4-3.4V92.3c0-1.3-0.5-2.5-1.4-3.4l-7.4-7.4c-0.9-0.9-2.1-1.4-3.4-1.4h-10.4
		c-1.3,0-2.5,0.5-3.4,1.4l-57,57.1c-0.9,0.9-2.1,1.4-3.4,1.4H50.1c-1.3,0-2.5-0.5-3.4-1.4l-22.1-22.1c-0.9-0.9-1.4-2.1-1.4-3.4V81.9
		c0-1.3,0.5-2.5,1.4-3.4l22.1-22.1c0.9-0.9,2.1-1.4,3.4-1.4h31.2c1.3,0,2.5,0.5,3.4,1.4l11.9,11.9c1.9,1.9,1.9,4.9,0,6.8l-11,11
		c-0.9,0.9-2.2,1.4-3.4,1.4c-1.2,0-2.5-0.5-3.4-1.4l-4.5-4.5c-0.9-0.9-2.1-1.4-3.4-1.4H60.5c-1.3,0-2.5,0.5-3.4,1.4l-7.4,7.4
		c-0.9,0.9-1.4,2.1-1.4,3.4v10.4c0,1.3,0.5,2.5,1.4,3.4l7.4,7.4c0.9,0.9,2.1,1.4,3.4,1.4h10.4c1.3,0,2.5-0.5,3.4-1.4l57-57.1
		c0.9-0.9,2.1-1.4,3.4-1.4H165.9 M165.9,52h-31.2c-2.1,0-4.1,0.8-5.5,2.3l-57,57.1c-0.3,0.3-0.8,0.5-1.3,0.5H60.5
		c-0.5,0-0.9-0.2-1.3-0.5l-7.4-7.4c-0.3-0.3-0.5-0.8-0.5-1.3V92.3c0-0.5,0.2-0.9,0.5-1.3l7.4-7.4c0.3-0.3,0.8-0.5,1.3-0.5h10.4
		c0.5,0,0.9,0.2,1.3,0.5l4.5,4.5c1.5,1.5,3.4,2.3,5.5,2.3c2.1,0,4-0.8,5.5-2.3l11-11c1.5-1.5,2.3-3.4,2.3-5.5c0-2.1-0.8-4-2.3-5.5
		L86.8,54.3c-1.5-1.5-3.4-2.3-5.5-2.3H50.1c-2.1,0-4,0.8-5.5,2.3L22.5,76.4c-1.5,1.5-2.3,3.4-2.3,5.5v31.2c0,2.1,0.8,4,2.3,5.5
		l22.1,22.1c1.5,1.5,3.4,2.3,5.5,2.3h31.2c2.1,0,4.1-0.8,5.5-2.3l57-57.1c0.3-0.3,0.8-0.5,1.3-0.5h10.4c0.5,0,0.9,0.2,1.3,0.5
		l7.4,7.4c0.3,0.3,0.5,0.8,0.5,1.3v10.4c0,0.5-0.2,0.9-0.5,1.3l-7.4,7.4c-0.3,0.3-0.8,0.5-1.3,0.5h-10.4c-0.5,0-0.9-0.2-1.3-0.5
		l-4.6-4.6c-1.5-1.5-3.4-2.3-5.5-2.3c-2.1,0-4,0.8-5.5,2.2L114.7,120c-1.5,1.5-2.3,3.5-2.3,5.6v30.7c0,4.3,3.5,7.8,7.8,7.8H136
		c4.3,0,7.8-3.5,7.8-7.8v-11.4c0-1,0.8-1.8,1.8-1.8h20.4c2.1,0,4-0.8,5.5-2.3l22.1-22.1c1.5-1.5,2.3-3.4,2.3-5.5V81.9
		c0-2.1-0.8-4-2.3-5.5l-22.1-22.1C170,52.8,168,52,165.9,52L165.9,52z"/>
</g>
</svg>
